<svg xmlns="http://www.w3.org/2000/svg" width="160.461" height="72.189" viewBox="0 0 160.461 72.189"><g data-name="Group 214" stroke="#fff"><path data-name="Path 11280" d="M1.414 52.727l14.077 13.476c4.821 4.616 10.5 3.406 14.747-3.143l9.276-14.289c4.851-7.474 11.477-7.907 16.551-1.083 6.959 9.361 16.343 4.7 20.425-10.137l5.374-19.537c5.088-18.5 17.806-20.2 24.028-3.207l3.3 9.007c2.712 7.407 6.975 11.766 11.5 11.766h9.8c2.86 0 5.654 1.743 8.026 5.006l20.551 28.269" fill="none" stroke-linecap="round" stroke-linejoin="round" stroke-width="2"/><path data-name="Path 11281" d="M30.64 68.746a2.942 2.942 0 1 1-2.942-2.942 2.943 2.943 0 0 1 2.942 2.942z" fill="#fff"/><path data-name="Path 11282" d="M49.263 42.805a2.943 2.943 0 1 1-2.943-2.942 2.943 2.943 0 0 1 2.943 2.942z" fill="#fff"/><path data-name="Path 11283" d="M71.715 49.909a2.943 2.943 0 1 1-2.942-2.943 2.942 2.942 0 0 1 2.942 2.943z" fill="#fff"/><path data-name="Path 11284" d="M94.167 3.442A2.942 2.942 0 1 1 91.221.5a2.942 2.942 0 0 1 2.946 2.942z" fill="#fff"/><path data-name="Path 11285" d="M116.615 31.108a2.943 2.943 0 1 1-2.943-2.942 2.943 2.943 0 0 1 2.943 2.942z" fill="#fff"/><path data-name="Path 11286" d="M135.148 38.474a2.942 2.942 0 1 1-2.942-2.943 2.942 2.942 0 0 1 2.942 2.943z" fill="#fff"/></g></svg>