<svg xmlns="http://www.w3.org/2000/svg" width="125.87" height="52.338" viewBox="0 0 125.87 52.338"><g data-name="Group 5464"><g data-name="Group 5457"><path data-name="Rectangle 8939" fill="#076ae1" d="M0 0h125.87v52.338H0z"/><path data-name="Rectangle 8940" fill="#e4001b" d="M33.356 0h59.157v52.338H33.356z"/></g><path data-name="Path 12127" d="M17.092 10.718h91.69v30.9h-91.69z" fill="#076ae1"/><g data-name="Group 5460" fill="#fff"><g data-name="Group 5458"><path data-name="Path 12101" d="M29.332 20.207l2.825 6.709h-1.7l-.524-1.325h-2.855l-.475 1.325h-1.675l2.569-6.709zm.134 4.212l-1.031-2.608-.934 2.608z"/><path data-name="Path 12102" d="M36.311 22.695l2.044-2.488h1.377v6.709h-1.584v-4.188l-1.718 2.1h-.238l-1.718-2.1v4.188H32.89v-6.709h1.375z"/><path data-name="Path 12103" d="M44.86 20.207l2.825 6.709h-1.7l-.524-1.325h-2.848l-.475 1.325h-1.679l2.569-6.709zm.134 4.212l-1.031-2.608-.934 2.608z"/><path data-name="Path 12104" d="M54.863 20.207v6.709h-1.338l-3.51-4.3v4.3h-1.584v-6.709h1.453l3.4 4.1v-4.1z"/><path data-name="Path 12105" d="M60.01 20.207l2.825 6.709h-1.7l-.524-1.325h-2.848l-.475 1.325h-1.679l2.569-6.709zm.134 4.212l-1.031-2.608-.934 2.608z"/><path data-name="Path 12106" d="M69.913 20.207v6.709h-1.584v-2.713h-3.167v2.713h-1.584v-6.709h1.584v2.694h3.168v-2.694z"/><path data-name="Path 12107" d="M77.345 22.695l2.044-2.488h1.377v6.709h-1.58v-4.188l-1.718 2.1h-.238l-1.718-2.1v4.188h-1.584v-6.709h1.376z"/><path data-name="Path 12108" d="M85.895 20.207l2.825 6.709h-1.7l-.524-1.325h-2.848l-.475 1.325h-1.679l2.569-6.709zm.134 4.212l-1.031-2.608-.934 2.608z"/><path data-name="Path 12109" d="M89.453 20.207h2.841a2.061 2.061 0 0 1 1.5.564 1.837 1.837 0 0 1 .578 1.365 1.734 1.734 0 0 1-1.092 1.641 2.342 2.342 0 0 1 .91 1.238q.432 1.008.833 1.9h-1.738q-.156-.331-.543-1.263a3.935 3.935 0 0 0-.662-1.2.841.841 0 0 0-.589-.264h-.455v2.723h-1.583zm1.584 1.229v1.527h.837a.949.949 0 0 0 .635-.2.706.706 0 0 0 .234-.569q0-.759-.906-.759z"/><path data-name="Path 12110" d="M100.942 20.207v1.229h-2.3v5.48h-1.584v-5.48h-2.3v-1.229z"/></g><g data-name="Group 5459"><path data-name="Path 12111" d="M42.07 29.326h.8l.781 1.923.773-1.923h.8v2.778h-.678v-1.666l-.623 1.666h-.547l-.627-1.67v1.67h-.678z"/><path data-name="Path 12112" d="M45.697 29.326h.678v1.662c0 .328.163.518.484.518a.457.457 0 0 0 .492-.518v-1.662h.678v1.658a1.092 1.092 0 0 1-1.181 1.147 1.066 1.066 0 0 1-1.15-1.147z"/><path data-name="Path 12113" d="M49.641 29.326c.682 0 1.023.392 1.023.874a.808.808 0 0 1-.619.8l.642 1.1h-.765l-.579-1.049h-.163V32.1h-.678v-2.778zm-.04.562h-.42v.689h.42c.254 0 .373-.131.373-.348s-.119-.341-.373-.341z"/><path data-name="Path 12114" d="M52.82 31.613h-1.039l-.167.491h-.71l1.007-2.778h.785l1.007 2.778h-.712zm-.519-1.539l-.341 1.017h.686z"/><path data-name="Path 12115" d="M55.742 30.958h-1.055v1.144h-.677v-2.778h.678v1.088h1.055v-1.088h.678v2.778h-.678z"/><path data-name="Path 12116" d="M59.044 32.104h-1.3v-2.778h1.252c.567 0 .9.281.9.72a.63.63 0 0 1-.472.633.674.674 0 0 1 .535.669c.009.459-.328.756-.915.756zm-.174-2.236h-.444v.582h.444c.222 0 .345-.1.345-.289s-.119-.293-.346-.293zm.048 1.076h-.492v.613h.5c.226 0 .357-.1.357-.3s-.14-.313-.366-.313z"/><path data-name="Path 12117" d="M62.064 29.868h-1.027v.562h.908v.522h-.908v.609h1.027v.542h-1.706v-2.778h1.705z"/><path data-name="Path 12118" d="M63.641 29.326c.682 0 1.023.392 1.023.874a.809.809 0 0 1-.619.8l.642 1.1h-.765l-.579-1.049h-.163V32.1h-.682v-2.778zm-.04.562h-.42v.689h.42c.254 0 .373-.131.373-.348s-.119-.341-.376-.341z"/><path data-name="Path 12119" d="M66.094 32.131c-.6 0-1.067-.3-1.086-.859h.721a.319.319 0 0 0 .345.317c.2 0 .325-.1.325-.261 0-.515-1.391-.238-1.384-1.223 0-.526.432-.819 1.015-.819.607 0 1.015.3 1.043.831h-.734a.3.3 0 0 0-.321-.289.247.247 0 0 0-.286.253c0 .483 1.376.265 1.376 1.2a.9.9 0 0 1-1.014.85z"/><path data-name="Path 12120" d="M69.258 31.613h-1.039l-.167.491h-.709l1.007-2.778h.785l1.007 2.778h-.718zm-.519-1.539l-.341 1.017h.686z"/><path data-name="Path 12121" d="M72.179 30.958h-1.055v1.144h-.678v-2.778h.678v1.088h1.055v-1.088h.678v2.778h-.678z"/><path data-name="Path 12122" d="M75.072 31.613h-1.039l-.167.491h-.71l1.016-2.778h.785l1.007 2.778h-.718zm-.519-1.539l-.341 1.017h.686z"/><path data-name="Path 12123" d="M77.561 32.104h-1.3v-2.778h1.253c.567 0 .9.281.9.72a.63.63 0 0 1-.472.633.674.674 0 0 1 .535.669c.013.459-.329.756-.916.756zm-.174-2.236h-.444v.582h.444c.222 0 .345-.1.345-.289s-.123-.293-.342-.293zm.048 1.076h-.492v.613h.5c.226 0 .357-.1.357-.3s-.139-.313-.365-.313z"/><path data-name="Path 12124" d="M80.609 31.613H79.57l-.167.491h-.71l1.007-2.778h.785l1.007 2.778h-.718zm-.519-1.539l-.341 1.017h.686z"/><path data-name="Path 12125" d="M81.647 29.326H83.8v.542h-.738v2.236h-.681v-2.236h-.738z"/></g></g><path data-name="Path 12126" d="M13.563 7.372v37.595h98.743V7.372zm95.218 34.249h-91.69v-30.9h91.69z" fill="#fbe51a"/></g></svg>